<?xml version="1.0" encoding="UTF-8"?>
<svg width="681.03" height="364.93" clip-rule="evenodd" fill-rule="evenodd" stroke-linejoin="round" stroke-miterlimit="2" version="1.1" viewBox="0 0 681.03 364.93" xml:space="preserve" xmlns="http://www.w3.org/2000/svg">
<title>Pure Data logo</title>
<desc>A visual programming language for interactive computer music and multimedia works created by David Puckette</desc>
<g transform="translate(10.516 7.7643)"><g stroke="#000"><rect width="647.36" height="349.48" rx="0" fill="#fff" stroke-width="15.364"/><path d="m210-7.2582v39.436h-180v283.7h180v40.058h-220.01v-363.19z" stroke-linejoin="miter" stroke-width="1.0122px"/><path d="m450 356.4v-39.474h180v-283.97h-180v-40.096h220.01v363.54z" stroke-linejoin="miter" stroke-width="1.0127px"/></g><g transform="scale(1.1087 .90193)" stroke-width="7.2756" aria-label="pd~"><path d="m97.316 228.37c13.969 10.186 27.356 14.551 44.235 14.551 41.034 0 71.3-25.61 71.3-60.532 0-36.96-30.557-64.025-72.173-64.025-17.461 0-29.684 4.0743-43.362 14.842v-11.35h-34.923c-7.2755 0-10.186 0.58205-12.805 2.0372-4.6563 2.9102-7.5665 7.8576-7.5665 13.096 0 4.6563 2.3282 9.3127 6.4025 12.223 3.2012 2.0371 6.1114 2.6192 13.969 2.6192h3.4923v120.77h-3.4923c-7.2755 0-10.186 0.58204-12.805 2.0372-4.6563 2.6192-7.5665 7.8576-7.5665 12.805s2.3282 9.3127 6.4025 12.223c2.9102 2.3282 6.4025 2.9102 13.969 2.9102h50.638c6.6935 0 10.477-0.58204 12.805-2.0371 4.6563-2.9102 7.5666-7.8576 7.5666-13.096 0-4.6563-2.3282-9.3127-6.4025-12.223-2.9102-2.0372-6.1114-2.6192-13.969-2.6192h-15.715zm42.198-80.031c24.446 0 41.907 13.387 41.907 32.303 0 9.0216-5.2384 18.625-13.387 24.446-7.2755 5.2384-16.879 7.8576-28.52 7.8576-11.932 0-21.536-2.6192-28.811-7.8576-7.8576-5.8204-13.387-15.424-13.387-24.155 0-19.207 17.17-32.594 42.198-32.594z"/><path d="m375.82 70.053h-34.923c-7.5666 0-9.8947 0.29102-12.805 2.0371-4.6563 2.9102-7.5666 7.5665-7.5666 12.805 0 4.9474 2.3282 9.3127 6.4025 12.223 3.2012 2.0371 6.1114 2.9102 13.969 2.9102h3.4922v30.848c-11.35-8.4396-25.901-12.805-42.489-12.805-22.409 0-38.997 5.8204-52.675 18.334-13.678 12.514-20.662 28.811-20.662 47.145 0 18.625 6.9845 34.923 20.662 47.436 13.678 12.514 30.266 18.334 52.384 18.334 16.879 0 28.52-3.4922 42.78-12.514v8.7306h34.923c6.9845 0 10.186-0.58204 12.805-2.0372 4.6563-2.9102 7.5665-7.8576 7.5665-13.096 0-4.6563-2.3282-9.3127-6.4025-12.223-3.2012-2.0371-5.8204-2.6192-13.969-2.6192h-3.4922zm-73.628 77.994c13.969 0 22.991 3.2012 31.139 10.768 6.9845 6.4025 11.059 15.715 11.059 24.446 0 21.536-17.17 36.087-42.489 36.087-13.387 0-22.991-3.4922-30.848-10.768-6.9845-6.6935-11.059-15.715-11.059-25.028 0-9.0217 4.0743-18.043 11.059-24.737 7.8576-7.5666 17.17-10.768 31.139-10.768z"/><path d="m536.76 136.41c-6.4025 0-10.186 2.3282-16.588 10.477-6.4025 8.4396-9.8947 11.641-12.223 11.641-1.7461 0-5.2384-2.0372-9.6037-5.8204-20.662-18.043-28.52-22.118-41.616-22.118-12.805 0-22.7 5.2384-34.34 18.043-8.7306 9.6037-11.932 15.133-11.932 20.954 0 8.7306 7.8576 16.297 17.17 16.297 6.1114 0 9.0216-1.7461 16.879-11.35 7.2755-8.4396 9.8947-10.768 11.932-10.768 1.4551 0 5.5294 2.6192 10.768 6.9845 17.752 15.424 29.102 21.245 41.325 21.245s21.536-5.2384 32.594-17.752c10.186-11.641 12.514-15.424 12.514-21.536 0-9.0216-7.5665-16.297-16.879-16.297z"/></g></g></svg>
