<svg width="604" height="226" viewBox="0 0 604 226" fill="none" xmlns="http://www.w3.org/2000/svg">
<path d="M25 55L345 55" stroke="black" stroke-width="2"/>
<path d="M69.6667 55C69.6667 57.9455 72.0545 60.3333 75 60.3333C77.9455 60.3333 80.3333 57.9455 80.3333 55C80.3333 52.0545 77.9455 49.6667 75 49.6667C72.0545 49.6667 69.6667 52.0545 69.6667 55ZM75 192H74V193H75V192ZM112.707 192.707C113.098 192.317 113.098 191.683 112.707 191.293L106.343 184.929C105.953 184.538 105.319 184.538 104.929 184.929C104.538 185.319 104.538 185.953 104.929 186.343L110.586 192L104.929 197.657C104.538 198.047 104.538 198.681 104.929 199.071C105.319 199.462 105.953 199.462 106.343 199.071L112.707 192.707ZM74 55V192H76V55H74ZM75 193H112V191H75V193Z" fill="black"/>
<path d="M345.707 192.707C346.098 192.317 346.098 191.683 345.707 191.293L339.343 184.929C338.953 184.538 338.319 184.538 337.929 184.929C337.538 185.319 337.538 185.953 337.929 186.343L343.586 192L337.929 197.657C337.538 198.047 337.538 198.681 337.929 199.071C338.319 199.462 338.953 199.462 339.343 199.071L345.707 192.707ZM258 193H345V191H258V193Z" fill="black"/>
<path d="M418.707 88.2929C418.317 87.9024 417.683 87.9024 417.293 88.2929L410.929 94.6569C410.538 95.0474 410.538 95.6805 410.929 96.0711C411.319 96.4616 411.953 96.4616 412.343 96.0711L418 90.4142L423.657 96.0711C424.047 96.4616 424.681 96.4616 425.071 96.0711C425.462 95.6805 425.462 95.0474 425.071 94.6569L418.707 88.2929ZM419 158V89H417V158H419Z" fill="black"/>
<path d="M559.707 55.7071C560.098 55.3166 560.098 54.6834 559.707 54.2929L553.343 47.9289C552.953 47.5384 552.319 47.5384 551.929 47.9289C551.538 48.3195 551.538 48.9526 551.929 49.3431L557.586 55L551.929 60.6569C551.538 61.0474 551.538 61.6805 551.929 62.0711C552.319 62.4616 552.953 62.4616 553.343 62.0711L559.707 55.7071ZM491 56H559V54H491V56Z" fill="black"/>
<rect x="113" y="159" width="144" height="66" stroke="black" stroke-width="2"/>
<rect x="346" y="22" width="144" height="66" stroke="black" stroke-width="2"/>
<rect x="346" y="159" width="144" height="66" stroke="black" stroke-width="2"/>
<path d="M171.553 186.195C171.084 186.195 170.667 186.091 170.303 185.883C169.945 185.668 169.609 185.294 169.297 184.76H169.16C169.264 185.645 169.316 186.179 169.316 186.361V190.805H166.699V175.121H168.711L169.16 176.537H169.277C169.818 175.456 170.602 174.916 171.631 174.916C172.62 174.916 173.395 175.408 173.955 176.391C174.515 177.367 174.795 178.751 174.795 180.541C174.795 182.305 174.505 183.689 173.926 184.691C173.346 185.694 172.555 186.195 171.553 186.195ZM170.752 177.123C170.244 177.123 169.876 177.361 169.648 177.836C169.427 178.305 169.31 179.086 169.297 180.18V180.521C169.297 181.719 169.411 182.592 169.639 183.139C169.867 183.686 170.244 183.959 170.771 183.959C171.683 183.959 172.139 182.807 172.139 180.502C172.139 179.369 172.025 178.523 171.797 177.963C171.576 177.403 171.227 177.123 170.752 177.123ZM179.238 186H176.641V175.121H179.238V186ZM176.533 172.279C176.533 171.85 176.657 171.511 176.904 171.264C177.158 171.01 177.51 170.883 177.959 170.883C178.382 170.883 178.721 171.01 178.975 171.264C179.229 171.511 179.355 171.85 179.355 172.279C179.355 172.722 179.225 173.067 178.965 173.314C178.704 173.555 178.369 173.676 177.959 173.676C177.529 173.676 177.184 173.555 176.924 173.314C176.663 173.067 176.533 172.722 176.533 172.279ZM185.244 183.998C185.609 183.998 186.003 183.907 186.426 183.725V185.756C186.003 186.049 185.368 186.195 184.521 186.195C183.577 186.195 182.878 185.915 182.422 185.355C181.966 184.789 181.738 183.943 181.738 182.816V177.182H180.684V176.02L182.041 175.082L182.705 172.777H184.365V175.121H186.338V177.182H184.365V182.904C184.365 183.633 184.658 183.998 185.244 183.998ZM191.543 186.195C190.247 186.195 189.261 185.723 188.584 184.779C187.907 183.835 187.568 182.449 187.568 180.619C187.568 178.705 187.887 177.276 188.525 176.332C189.17 175.388 190.163 174.916 191.504 174.916C191.908 174.916 192.331 174.975 192.773 175.092C193.216 175.209 193.613 175.378 193.965 175.6L193.223 177.621C192.682 177.302 192.204 177.143 191.787 177.143C191.234 177.143 190.833 177.432 190.586 178.012C190.345 178.585 190.225 179.447 190.225 180.6C190.225 181.726 190.345 182.569 190.586 183.129C190.827 183.682 191.221 183.959 191.768 183.959C192.419 183.959 193.099 183.731 193.809 183.275V185.561C193.125 185.984 192.37 186.195 191.543 186.195ZM200.791 186V179.516C200.791 177.921 200.391 177.123 199.59 177.123C198.991 177.123 198.571 177.439 198.33 178.07C198.089 178.695 197.969 179.597 197.969 180.775V186H195.371V170.805H197.969V174.184C197.969 174.62 197.93 175.398 197.852 176.518H197.988C198.509 175.45 199.31 174.916 200.391 174.916C201.387 174.916 202.139 175.255 202.646 175.932C203.154 176.602 203.408 177.592 203.408 178.9V186H200.791ZM158.115 210.998C158.48 210.998 158.874 210.907 159.297 210.725V212.756C158.874 213.049 158.239 213.195 157.393 213.195C156.449 213.195 155.749 212.915 155.293 212.355C154.837 211.789 154.609 210.943 154.609 209.816V204.182H153.555V203.02L154.912 202.082L155.576 199.777H157.236V202.121H159.209V204.182H157.236V209.904C157.236 210.633 157.529 210.998 158.115 210.998ZM165.459 201.916C165.778 201.916 166.09 201.965 166.396 202.062L166.094 204.582C165.911 204.517 165.674 204.484 165.381 204.484C164.749 204.484 164.264 204.735 163.926 205.236C163.587 205.731 163.418 206.454 163.418 207.404V213H160.82V202.121H162.959L163.252 203.82H163.34C163.626 203.137 163.939 202.648 164.277 202.355C164.616 202.062 165.01 201.916 165.459 201.916ZM172.891 213L172.373 211.516H172.314C171.93 212.154 171.533 212.593 171.123 212.834C170.713 213.075 170.195 213.195 169.57 213.195C168.77 213.195 168.138 212.896 167.676 212.297C167.22 211.698 166.992 210.865 166.992 209.797C166.992 208.651 167.305 207.801 167.93 207.248C168.561 206.688 169.502 206.379 170.752 206.32L172.197 206.262V205.48C172.197 204.465 171.758 203.957 170.879 203.957C170.228 203.957 169.479 204.211 168.633 204.719L167.734 202.922C168.815 202.238 169.99 201.896 171.26 201.896C172.412 201.896 173.288 202.229 173.887 202.893C174.492 203.55 174.795 204.484 174.795 205.695V213H172.891ZM170.635 211.164C171.11 211.164 171.488 210.952 171.768 210.529C172.054 210.1 172.197 209.53 172.197 208.82V207.902L171.396 207.941C170.804 207.974 170.368 208.143 170.088 208.449C169.814 208.755 169.678 209.211 169.678 209.816C169.678 210.715 169.997 211.164 170.635 211.164ZM180.488 213.195C179.193 213.195 178.206 212.723 177.529 211.779C176.852 210.835 176.514 209.449 176.514 207.619C176.514 205.705 176.833 204.276 177.471 203.332C178.115 202.388 179.108 201.916 180.449 201.916C180.853 201.916 181.276 201.975 181.719 202.092C182.161 202.209 182.559 202.378 182.91 202.6L182.168 204.621C181.628 204.302 181.149 204.143 180.732 204.143C180.179 204.143 179.779 204.432 179.531 205.012C179.29 205.585 179.17 206.447 179.17 207.6C179.17 208.726 179.29 209.569 179.531 210.129C179.772 210.682 180.166 210.959 180.713 210.959C181.364 210.959 182.044 210.731 182.754 210.275V212.561C182.07 212.984 181.315 213.195 180.488 213.195ZM186.875 207.141L187.529 205.842L189.678 202.121H192.432L189.678 206.584L192.617 213H189.893L187.93 208.4L186.914 209.318V213H184.316V197.805H186.914V204.963L186.797 207.141H186.875ZM196.367 213H193.77V202.121H196.367V213ZM193.662 199.279C193.662 198.85 193.786 198.511 194.033 198.264C194.287 198.01 194.639 197.883 195.088 197.883C195.511 197.883 195.85 198.01 196.104 198.264C196.357 198.511 196.484 198.85 196.484 199.279C196.484 199.722 196.354 200.067 196.094 200.314C195.833 200.555 195.498 200.676 195.088 200.676C194.658 200.676 194.313 200.555 194.053 200.314C193.792 200.067 193.662 199.722 193.662 199.279ZM204.014 213V206.516C204.014 205.728 203.919 205.132 203.73 204.729C203.542 204.325 203.236 204.123 202.812 204.123C202.253 204.123 201.842 204.403 201.582 204.963C201.322 205.516 201.191 206.454 201.191 207.775V213H198.594V202.121H200.654L200.967 203.518H201.133C201.367 203.016 201.702 202.626 202.139 202.346C202.575 202.059 203.086 201.916 203.672 201.916C204.661 201.916 205.4 202.255 205.889 202.932C206.383 203.609 206.631 204.598 206.631 205.9V213H204.014ZM216.562 202.141V203.664L215.264 203.957C215.518 204.413 215.645 204.986 215.645 205.676C215.645 206.828 215.332 207.73 214.707 208.381C214.082 209.032 213.21 209.357 212.09 209.357C211.764 209.357 211.523 209.331 211.367 209.279C211.243 209.39 211.126 209.514 211.016 209.65C210.905 209.787 210.85 209.956 210.85 210.158C210.85 210.614 211.243 210.842 212.031 210.842H213.604C214.528 210.842 215.238 211.092 215.732 211.594C216.234 212.089 216.484 212.837 216.484 213.84C216.484 215.103 216.061 216.079 215.215 216.77C214.368 217.46 213.151 217.805 211.562 217.805C210.358 217.805 209.43 217.541 208.779 217.014C208.128 216.493 207.803 215.747 207.803 214.777C207.803 214.172 207.988 213.638 208.359 213.176C208.73 212.72 209.245 212.388 209.902 212.18C209.57 212.049 209.297 211.848 209.082 211.574C208.874 211.301 208.77 210.982 208.77 210.617C208.77 210.396 208.802 210.197 208.867 210.021C208.932 209.839 209.023 209.67 209.141 209.514C209.264 209.351 209.512 209.113 209.883 208.801C209.434 208.527 209.079 208.107 208.818 207.541C208.558 206.975 208.428 206.346 208.428 205.656C208.428 204.465 208.74 203.544 209.365 202.893C209.99 202.242 210.885 201.916 212.051 201.916C212.272 201.916 212.526 201.942 212.812 201.994C213.099 202.04 213.317 202.089 213.467 202.141H216.562ZM210.166 214.582C210.166 215.012 210.299 215.34 210.566 215.568C210.84 215.803 211.227 215.92 211.729 215.92C212.516 215.92 213.105 215.77 213.496 215.471C213.893 215.171 214.092 214.761 214.092 214.24C214.092 213.83 213.984 213.54 213.77 213.371C213.561 213.202 213.167 213.117 212.588 213.117H211.328C210.977 213.117 210.693 213.247 210.479 213.508C210.27 213.775 210.166 214.133 210.166 214.582ZM210.967 205.676C210.967 206.958 211.328 207.6 212.051 207.6C212.754 207.6 213.105 206.952 213.105 205.656C213.105 204.328 212.754 203.664 212.051 203.664C211.328 203.664 210.967 204.335 210.967 205.676Z" fill="black"/>
<path d="M371.438 186.195C370.435 186.195 369.644 185.701 369.064 184.711C368.485 183.721 368.195 182.344 368.195 180.58C368.195 178.809 368.479 177.423 369.045 176.42C369.611 175.417 370.393 174.916 371.389 174.916C371.883 174.916 372.31 175.04 372.668 175.287C373.033 175.528 373.368 175.938 373.674 176.518H373.83C373.752 175.528 373.713 174.835 373.713 174.438V170.805H376.311V186H374.377L373.938 184.584H373.85C373.296 185.658 372.492 186.195 371.438 186.195ZM372.277 183.998C372.759 183.998 373.111 183.78 373.332 183.344C373.553 182.901 373.674 182.1 373.693 180.941V180.6C373.693 179.337 373.579 178.448 373.352 177.934C373.13 177.419 372.762 177.162 372.248 177.162C371.766 177.162 371.415 177.458 371.193 178.051C370.979 178.637 370.871 179.493 370.871 180.619C370.871 181.745 370.982 182.592 371.203 183.158C371.424 183.718 371.783 183.998 372.277 183.998ZM382.512 186.195C381.151 186.195 380.077 185.714 379.289 184.75C378.508 183.78 378.117 182.41 378.117 180.639C378.117 178.842 378.472 177.439 379.182 176.43C379.891 175.421 380.881 174.916 382.15 174.916C383.335 174.916 384.27 175.349 384.953 176.215C385.637 177.074 385.979 178.282 385.979 179.838V181.225H380.754C380.773 182.195 380.972 182.917 381.35 183.393C381.727 183.861 382.248 184.096 382.912 184.096C383.758 184.096 384.624 183.832 385.51 183.305V185.443C384.676 185.945 383.677 186.195 382.512 186.195ZM382.131 176.918C381.76 176.918 381.454 177.117 381.213 177.514C380.972 177.904 380.832 178.513 380.793 179.34H383.43C383.417 178.546 383.296 177.943 383.068 177.533C382.84 177.123 382.528 176.918 382.131 176.918ZM393.537 182.816C393.537 183.878 393.225 184.708 392.6 185.307C391.981 185.899 391.066 186.195 389.855 186.195C388.781 186.195 387.893 185.984 387.189 185.561V183.305C387.548 183.552 387.964 183.757 388.439 183.92C388.921 184.083 389.344 184.164 389.709 184.164C390.113 184.164 390.419 184.066 390.627 183.871C390.842 183.669 390.949 183.406 390.949 183.08C390.949 182.748 390.839 182.458 390.617 182.211C390.396 181.964 389.989 181.661 389.396 181.303C388.609 180.834 388.042 180.336 387.697 179.809C387.359 179.275 387.189 178.646 387.189 177.924C387.189 176.999 387.505 176.267 388.137 175.727C388.775 175.186 389.647 174.916 390.754 174.916C391.717 174.916 392.626 175.17 393.479 175.678L392.629 177.543C391.932 177.165 391.32 176.977 390.793 176.977C390.461 176.977 390.21 177.064 390.041 177.24C389.878 177.416 389.797 177.631 389.797 177.885C389.797 178.178 389.898 178.438 390.1 178.666C390.308 178.894 390.692 179.177 391.252 179.516C391.929 179.926 392.404 180.274 392.678 180.561C392.951 180.847 393.163 181.173 393.312 181.537C393.462 181.902 393.537 182.328 393.537 182.816ZM397.795 186H395.197V175.121H397.795V186ZM395.09 172.279C395.09 171.85 395.214 171.511 395.461 171.264C395.715 171.01 396.066 170.883 396.516 170.883C396.939 170.883 397.277 171.01 397.531 171.264C397.785 171.511 397.912 171.85 397.912 172.279C397.912 172.722 397.782 173.067 397.521 173.314C397.261 173.555 396.926 173.676 396.516 173.676C396.086 173.676 395.741 173.555 395.48 173.314C395.22 173.067 395.09 172.722 395.09 172.279ZM404.66 174.916C404.979 174.916 405.292 174.965 405.598 175.062L405.295 177.582C405.113 177.517 404.875 177.484 404.582 177.484C403.951 177.484 403.465 177.735 403.127 178.236C402.788 178.731 402.619 179.454 402.619 180.404V186H400.021V175.121H402.16L402.453 176.82H402.541C402.827 176.137 403.14 175.648 403.479 175.355C403.817 175.062 404.211 174.916 404.66 174.916ZM410.773 186.195C409.413 186.195 408.339 185.714 407.551 184.75C406.77 183.78 406.379 182.41 406.379 180.639C406.379 178.842 406.734 177.439 407.443 176.43C408.153 175.421 409.143 174.916 410.412 174.916C411.597 174.916 412.531 175.349 413.215 176.215C413.898 177.074 414.24 178.282 414.24 179.838V181.225H409.016C409.035 182.195 409.234 182.917 409.611 183.393C409.989 183.861 410.51 184.096 411.174 184.096C412.02 184.096 412.886 183.832 413.771 183.305V185.443C412.938 185.945 411.939 186.195 410.773 186.195ZM410.393 176.918C410.021 176.918 409.715 177.117 409.475 177.514C409.234 177.904 409.094 178.513 409.055 179.34H411.691C411.678 178.546 411.558 177.943 411.33 177.533C411.102 177.123 410.79 176.918 410.393 176.918ZM418.82 186.195C417.818 186.195 417.027 185.701 416.447 184.711C415.868 183.721 415.578 182.344 415.578 180.58C415.578 178.809 415.861 177.423 416.428 176.42C416.994 175.417 417.775 174.916 418.771 174.916C419.266 174.916 419.693 175.04 420.051 175.287C420.415 175.528 420.751 175.938 421.057 176.518H421.213C421.135 175.528 421.096 174.835 421.096 174.438V170.805H423.693V186H421.76L421.32 184.584H421.232C420.679 185.658 419.875 186.195 418.82 186.195ZM419.66 183.998C420.142 183.998 420.493 183.78 420.715 183.344C420.936 182.901 421.057 182.1 421.076 180.941V180.6C421.076 179.337 420.962 178.448 420.734 177.934C420.513 177.419 420.145 177.162 419.631 177.162C419.149 177.162 418.798 177.458 418.576 178.051C418.361 178.637 418.254 179.493 418.254 180.619C418.254 181.745 418.365 182.592 418.586 183.158C418.807 183.718 419.165 183.998 419.66 183.998ZM435.676 186.195C435.207 186.195 434.79 186.091 434.426 185.883C434.068 185.668 433.732 185.294 433.42 184.76H433.283C433.387 185.645 433.439 186.179 433.439 186.361V190.805H430.822V175.121H432.834L433.283 176.537H433.4C433.941 175.456 434.725 174.916 435.754 174.916C436.743 174.916 437.518 175.408 438.078 176.391C438.638 177.367 438.918 178.751 438.918 180.541C438.918 182.305 438.628 183.689 438.049 184.691C437.469 185.694 436.678 186.195 435.676 186.195ZM434.875 177.123C434.367 177.123 433.999 177.361 433.771 177.836C433.55 178.305 433.433 179.086 433.42 180.18V180.521C433.42 181.719 433.534 182.592 433.762 183.139C433.99 183.686 434.367 183.959 434.895 183.959C435.806 183.959 436.262 182.807 436.262 180.502C436.262 179.369 436.148 178.523 435.92 177.963C435.699 177.403 435.35 177.123 434.875 177.123ZM443.361 186H440.764V175.121H443.361V186ZM440.656 172.279C440.656 171.85 440.78 171.511 441.027 171.264C441.281 171.01 441.633 170.883 442.082 170.883C442.505 170.883 442.844 171.01 443.098 171.264C443.352 171.511 443.479 171.85 443.479 172.279C443.479 172.722 443.348 173.067 443.088 173.314C442.827 173.555 442.492 173.676 442.082 173.676C441.652 173.676 441.307 173.555 441.047 173.314C440.786 173.067 440.656 172.722 440.656 172.279ZM449.367 183.998C449.732 183.998 450.126 183.907 450.549 183.725V185.756C450.126 186.049 449.491 186.195 448.645 186.195C447.701 186.195 447.001 185.915 446.545 185.355C446.089 184.789 445.861 183.943 445.861 182.816V177.182H444.807V176.02L446.164 175.082L446.828 172.777H448.488V175.121H450.461V177.182H448.488V182.904C448.488 183.633 448.781 183.998 449.367 183.998ZM455.666 186.195C454.37 186.195 453.384 185.723 452.707 184.779C452.03 183.835 451.691 182.449 451.691 180.619C451.691 178.705 452.01 177.276 452.648 176.332C453.293 175.388 454.286 174.916 455.627 174.916C456.031 174.916 456.454 174.975 456.896 175.092C457.339 175.209 457.736 175.378 458.088 175.6L457.346 177.621C456.805 177.302 456.327 177.143 455.91 177.143C455.357 177.143 454.956 177.432 454.709 178.012C454.468 178.585 454.348 179.447 454.348 180.6C454.348 181.726 454.468 182.569 454.709 183.129C454.95 183.682 455.344 183.959 455.891 183.959C456.542 183.959 457.222 183.731 457.932 183.275V185.561C457.248 185.984 456.493 186.195 455.666 186.195ZM464.914 186V179.516C464.914 177.921 464.514 177.123 463.713 177.123C463.114 177.123 462.694 177.439 462.453 178.07C462.212 178.695 462.092 179.597 462.092 180.775V186H459.494V170.805H462.092V174.184C462.092 174.62 462.053 175.398 461.975 176.518H462.111C462.632 175.45 463.433 174.916 464.514 174.916C465.51 174.916 466.262 175.255 466.77 175.932C467.277 176.602 467.531 177.592 467.531 178.9V186H464.914ZM380.412 213.195C379.117 213.195 378.13 212.723 377.453 211.779C376.776 210.835 376.438 209.449 376.438 207.619C376.438 205.705 376.757 204.276 377.395 203.332C378.039 202.388 379.032 201.916 380.373 201.916C380.777 201.916 381.2 201.975 381.643 202.092C382.085 202.209 382.482 202.378 382.834 202.6L382.092 204.621C381.551 204.302 381.073 204.143 380.656 204.143C380.103 204.143 379.702 204.432 379.455 205.012C379.214 205.585 379.094 206.447 379.094 207.6C379.094 208.726 379.214 209.569 379.455 210.129C379.696 210.682 380.09 210.959 380.637 210.959C381.288 210.959 381.968 210.731 382.678 210.275V212.561C381.994 212.984 381.239 213.195 380.412 213.195ZM389.572 213L389.055 211.516H388.996C388.612 212.154 388.215 212.593 387.805 212.834C387.395 213.075 386.877 213.195 386.252 213.195C385.451 213.195 384.82 212.896 384.357 212.297C383.902 211.698 383.674 210.865 383.674 209.797C383.674 208.651 383.986 207.801 384.611 207.248C385.243 206.688 386.184 206.379 387.434 206.32L388.879 206.262V205.48C388.879 204.465 388.439 203.957 387.561 203.957C386.91 203.957 386.161 204.211 385.314 204.719L384.416 202.922C385.497 202.238 386.672 201.896 387.941 201.896C389.094 201.896 389.969 202.229 390.568 202.893C391.174 203.55 391.477 204.484 391.477 205.695V213H389.572ZM387.316 211.164C387.792 211.164 388.169 210.952 388.449 210.529C388.736 210.1 388.879 209.53 388.879 208.82V207.902L388.078 207.941C387.486 207.974 387.049 208.143 386.77 208.449C386.496 208.755 386.359 209.211 386.359 209.816C386.359 210.715 386.678 211.164 387.316 211.164ZM396.174 213H393.576V197.805H396.174V213ZM401.955 213.195C400.66 213.195 399.673 212.723 398.996 211.779C398.319 210.835 397.98 209.449 397.98 207.619C397.98 205.705 398.299 204.276 398.938 203.332C399.582 202.388 400.575 201.916 401.916 201.916C402.32 201.916 402.743 201.975 403.186 202.092C403.628 202.209 404.025 202.378 404.377 202.6L403.635 204.621C403.094 204.302 402.616 204.143 402.199 204.143C401.646 204.143 401.245 204.432 400.998 205.012C400.757 205.585 400.637 206.447 400.637 207.6C400.637 208.726 400.757 209.569 400.998 210.129C401.239 210.682 401.633 210.959 402.18 210.959C402.831 210.959 403.511 210.731 404.221 210.275V212.561C403.537 212.984 402.782 213.195 401.955 213.195ZM411.662 213L411.34 211.604H411.203C410.962 212.098 410.617 212.489 410.168 212.775C409.725 213.055 409.217 213.195 408.645 213.195C407.668 213.195 406.929 212.863 406.428 212.199C405.926 211.535 405.676 210.542 405.676 209.221V202.121H408.303V208.596C408.303 209.39 408.397 209.989 408.586 210.393C408.775 210.796 409.081 210.998 409.504 210.998C410.064 210.998 410.471 210.718 410.725 210.158C410.985 209.598 411.115 208.658 411.115 207.336V202.121H413.742V213H411.662ZM418.518 213H415.92V197.805H418.518V213ZM426.037 213L425.52 211.516H425.461C425.077 212.154 424.68 212.593 424.27 212.834C423.859 213.075 423.342 213.195 422.717 213.195C421.916 213.195 421.285 212.896 420.822 212.297C420.367 211.698 420.139 210.865 420.139 209.797C420.139 208.651 420.451 207.801 421.076 207.248C421.708 206.688 422.648 206.379 423.898 206.32L425.344 206.262V205.48C425.344 204.465 424.904 203.957 424.025 203.957C423.374 203.957 422.626 204.211 421.779 204.719L420.881 202.922C421.962 202.238 423.137 201.896 424.406 201.896C425.559 201.896 426.434 202.229 427.033 202.893C427.639 203.55 427.941 204.484 427.941 205.695V213H426.037ZM423.781 211.164C424.257 211.164 424.634 210.952 424.914 210.529C425.201 210.1 425.344 209.53 425.344 208.82V207.902L424.543 207.941C423.951 207.974 423.514 208.143 423.234 208.449C422.961 208.755 422.824 209.211 422.824 209.816C422.824 210.715 423.143 211.164 423.781 211.164ZM433.82 210.998C434.185 210.998 434.579 210.907 435.002 210.725V212.756C434.579 213.049 433.944 213.195 433.098 213.195C432.154 213.195 431.454 212.915 430.998 212.355C430.542 211.789 430.314 210.943 430.314 209.816V204.182H429.26V203.02L430.617 202.082L431.281 199.777H432.941V202.121H434.914V204.182H432.941V209.904C432.941 210.633 433.234 210.998 433.82 210.998ZM439.143 213H436.545V202.121H439.143V213ZM436.438 199.279C436.438 198.85 436.561 198.511 436.809 198.264C437.062 198.01 437.414 197.883 437.863 197.883C438.286 197.883 438.625 198.01 438.879 198.264C439.133 198.511 439.26 198.85 439.26 199.279C439.26 199.722 439.13 200.067 438.869 200.314C438.609 200.555 438.273 200.676 437.863 200.676C437.434 200.676 437.089 200.555 436.828 200.314C436.568 200.067 436.438 199.722 436.438 199.279ZM449.426 207.541C449.426 209.325 449.048 210.715 448.293 211.711C447.538 212.701 446.503 213.195 445.188 213.195C444.354 213.195 443.618 212.967 442.98 212.512C442.342 212.056 441.851 211.402 441.506 210.549C441.161 209.689 440.988 208.687 440.988 207.541C440.988 205.777 441.363 204.4 442.111 203.41C442.86 202.414 443.898 201.916 445.227 201.916C446.509 201.916 447.528 202.424 448.283 203.439C449.045 204.449 449.426 205.816 449.426 207.541ZM443.645 207.541C443.645 208.674 443.768 209.53 444.016 210.109C444.263 210.689 444.66 210.979 445.207 210.979C446.249 210.979 446.77 209.833 446.77 207.541C446.77 206.402 446.643 205.552 446.389 204.992C446.141 204.426 445.747 204.143 445.207 204.143C444.66 204.143 444.263 204.426 444.016 204.992C443.768 205.552 443.645 206.402 443.645 207.541ZM456.672 213V206.516C456.672 205.728 456.577 205.132 456.389 204.729C456.2 204.325 455.894 204.123 455.471 204.123C454.911 204.123 454.501 204.403 454.24 204.963C453.98 205.516 453.85 206.454 453.85 207.775V213H451.252V202.121H453.312L453.625 203.518H453.791C454.025 203.016 454.361 202.626 454.797 202.346C455.233 202.059 455.744 201.916 456.33 201.916C457.32 201.916 458.059 202.255 458.547 202.932C459.042 203.609 459.289 204.598 459.289 205.9V213H456.672Z" fill="black"/>
<path d="M404.553 49.1953C404.084 49.1953 403.667 49.0911 403.303 48.8828C402.945 48.668 402.609 48.2936 402.297 47.7598H402.16C402.264 48.6452 402.316 49.179 402.316 49.3613V53.8047H399.699V38.1211H401.711L402.16 39.5371H402.277C402.818 38.4564 403.602 37.916 404.631 37.916C405.62 37.916 406.395 38.4076 406.955 39.3906C407.515 40.3672 407.795 41.7507 407.795 43.541C407.795 45.3053 407.505 46.6888 406.926 47.6914C406.346 48.694 405.555 49.1953 404.553 49.1953ZM403.752 40.123C403.244 40.123 402.876 40.3607 402.648 40.8359C402.427 41.3047 402.31 42.0859 402.297 43.1797V43.5215C402.297 44.7194 402.411 45.5918 402.639 46.1387C402.867 46.6855 403.244 46.959 403.771 46.959C404.683 46.959 405.139 45.8066 405.139 43.502C405.139 42.3691 405.025 41.5228 404.797 40.9629C404.576 40.403 404.227 40.123 403.752 40.123ZM412.238 49H409.641V38.1211H412.238V49ZM409.533 35.2793C409.533 34.8496 409.657 34.5111 409.904 34.2637C410.158 34.0098 410.51 33.8828 410.959 33.8828C411.382 33.8828 411.721 34.0098 411.975 34.2637C412.229 34.5111 412.355 34.8496 412.355 35.2793C412.355 35.722 412.225 36.0671 411.965 36.3145C411.704 36.5553 411.369 36.6758 410.959 36.6758C410.529 36.6758 410.184 36.5553 409.924 36.3145C409.663 36.0671 409.533 35.722 409.533 35.2793ZM418.244 46.998C418.609 46.998 419.003 46.9069 419.426 46.7246V48.7559C419.003 49.0488 418.368 49.1953 417.521 49.1953C416.577 49.1953 415.878 48.9154 415.422 48.3555C414.966 47.7891 414.738 46.9427 414.738 45.8164V40.1816H413.684V39.0195L415.041 38.082L415.705 35.7773H417.365V38.1211H419.338V40.1816H417.365V45.9043C417.365 46.6335 417.658 46.998 418.244 46.998ZM424.543 49.1953C423.247 49.1953 422.261 48.7233 421.584 47.7793C420.907 46.8353 420.568 45.4486 420.568 43.6191C420.568 41.7051 420.887 40.276 421.525 39.332C422.17 38.388 423.163 37.916 424.504 37.916C424.908 37.916 425.331 37.9746 425.773 38.0918C426.216 38.209 426.613 38.3783 426.965 38.5996L426.223 40.6211C425.682 40.3021 425.204 40.1426 424.787 40.1426C424.234 40.1426 423.833 40.4323 423.586 41.0117C423.345 41.5846 423.225 42.4473 423.225 43.5996C423.225 44.7259 423.345 45.569 423.586 46.1289C423.827 46.6823 424.221 46.959 424.768 46.959C425.419 46.959 426.099 46.7311 426.809 46.2754V48.5605C426.125 48.9837 425.37 49.1953 424.543 49.1953ZM433.791 49V42.5156C433.791 40.9206 433.391 40.123 432.59 40.123C431.991 40.123 431.571 40.4388 431.33 41.0703C431.089 41.6953 430.969 42.597 430.969 43.7754V49H428.371V33.8047H430.969V37.1836C430.969 37.6198 430.93 38.3978 430.852 39.5176H430.988C431.509 38.4499 432.31 37.916 433.391 37.916C434.387 37.916 435.139 38.2546 435.646 38.9316C436.154 39.6022 436.408 40.5918 436.408 41.9004V49H433.791ZM395.422 72.8164C395.422 73.8776 395.109 74.7077 394.484 75.3066C393.866 75.8991 392.951 76.1953 391.74 76.1953C390.666 76.1953 389.777 75.9837 389.074 75.5605V73.3047C389.432 73.5521 389.849 73.7572 390.324 73.9199C390.806 74.0827 391.229 74.1641 391.594 74.1641C391.997 74.1641 392.303 74.0664 392.512 73.8711C392.727 73.6693 392.834 73.4056 392.834 73.0801C392.834 72.748 392.723 72.4583 392.502 72.2109C392.281 71.9635 391.874 71.6608 391.281 71.3027C390.493 70.834 389.927 70.3359 389.582 69.8086C389.243 69.2747 389.074 68.6465 389.074 67.9238C389.074 66.9993 389.39 66.2669 390.021 65.7266C390.66 65.1862 391.532 64.916 392.639 64.916C393.602 64.916 394.51 65.1699 395.363 65.6777L394.514 67.543C393.817 67.1654 393.205 66.9766 392.678 66.9766C392.346 66.9766 392.095 67.0645 391.926 67.2402C391.763 67.416 391.682 67.6309 391.682 67.8848C391.682 68.1777 391.783 68.4382 391.984 68.666C392.193 68.8939 392.577 69.1771 393.137 69.5156C393.814 69.9258 394.289 70.2741 394.562 70.5605C394.836 70.847 395.048 71.1725 395.197 71.5371C395.347 71.9017 395.422 72.3281 395.422 72.8164ZM402.482 76V69.5156C402.482 67.9206 402.082 67.123 401.281 67.123C400.682 67.123 400.262 67.4388 400.021 68.0703C399.781 68.6953 399.66 69.597 399.66 70.7754V76H397.062V60.8047H399.66V64.1836C399.66 64.6198 399.621 65.3978 399.543 66.5176H399.68C400.201 65.4499 401.001 64.916 402.082 64.916C403.078 64.916 403.83 65.2546 404.338 65.9316C404.846 66.6022 405.1 67.5918 405.1 68.9004V76H402.482ZM409.816 76H407.219V65.1211H409.816V76ZM407.111 62.2793C407.111 61.8496 407.235 61.5111 407.482 61.2637C407.736 61.0098 408.088 60.8828 408.537 60.8828C408.96 60.8828 409.299 61.0098 409.553 61.2637C409.807 61.5111 409.934 61.8496 409.934 62.2793C409.934 62.722 409.803 63.0671 409.543 63.3145C409.283 63.5553 408.947 63.6758 408.537 63.6758C408.107 63.6758 407.762 63.5553 407.502 63.3145C407.242 63.0671 407.111 62.722 407.111 62.2793ZM416.877 67.1816H415.08V76H412.482V67.1816H411.223V65.8828L412.482 65.1016V64.2812C412.482 63.0703 412.733 62.1719 413.234 61.5859C413.736 60.9935 414.543 60.6973 415.656 60.6973C416.359 60.6973 417.014 60.8438 417.619 61.1367L416.936 63.1191C416.61 62.9629 416.278 62.8848 415.939 62.8848C415.64 62.8848 415.422 63.002 415.285 63.2363C415.148 63.4707 415.08 63.832 415.08 64.3203V65.1211H416.877V67.1816ZM421.799 73.998C422.163 73.998 422.557 73.9069 422.98 73.7246V75.7559C422.557 76.0488 421.923 76.1953 421.076 76.1953C420.132 76.1953 419.432 75.9154 418.977 75.3555C418.521 74.7891 418.293 73.9427 418.293 72.8164V67.1816H417.238V66.0195L418.596 65.082L419.26 62.7773H420.92V65.1211H422.893V67.1816H420.92V72.9043C420.92 73.6335 421.213 73.998 421.799 73.998ZM427.121 76H424.523V65.1211H427.121V76ZM424.416 62.2793C424.416 61.8496 424.54 61.5111 424.787 61.2637C425.041 61.0098 425.393 60.8828 425.842 60.8828C426.265 60.8828 426.604 61.0098 426.857 61.2637C427.111 61.5111 427.238 61.8496 427.238 62.2793C427.238 62.722 427.108 63.0671 426.848 63.3145C426.587 63.5553 426.252 63.6758 425.842 63.6758C425.412 63.6758 425.067 63.5553 424.807 63.3145C424.546 63.0671 424.416 62.722 424.416 62.2793ZM434.768 76V69.5156C434.768 68.7279 434.673 68.1322 434.484 67.7285C434.296 67.3249 433.99 67.123 433.566 67.123C433.007 67.123 432.596 67.403 432.336 67.9629C432.076 68.5163 431.945 69.4538 431.945 70.7754V76H429.348V65.1211H431.408L431.721 66.5176H431.887C432.121 66.0163 432.456 65.6257 432.893 65.3457C433.329 65.0592 433.84 64.916 434.426 64.916C435.415 64.916 436.154 65.2546 436.643 65.9316C437.137 66.6087 437.385 67.5983 437.385 68.9004V76H434.768ZM447.316 65.1406V66.6641L446.018 66.957C446.271 67.4128 446.398 67.9857 446.398 68.6758C446.398 69.8281 446.086 70.7298 445.461 71.3809C444.836 72.0319 443.964 72.3574 442.844 72.3574C442.518 72.3574 442.277 72.3314 442.121 72.2793C441.997 72.39 441.88 72.5137 441.77 72.6504C441.659 72.7871 441.604 72.9564 441.604 73.1582C441.604 73.6139 441.997 73.8418 442.785 73.8418H444.357C445.282 73.8418 445.992 74.0924 446.486 74.5938C446.988 75.0885 447.238 75.8372 447.238 76.8398C447.238 78.1029 446.815 79.0794 445.969 79.7695C445.122 80.4596 443.905 80.8047 442.316 80.8047C441.112 80.8047 440.184 80.541 439.533 80.0137C438.882 79.4928 438.557 78.7474 438.557 77.7773C438.557 77.1719 438.742 76.638 439.113 76.1758C439.484 75.7201 439.999 75.388 440.656 75.1797C440.324 75.0495 440.051 74.8477 439.836 74.5742C439.628 74.3008 439.523 73.9818 439.523 73.6172C439.523 73.3958 439.556 73.1973 439.621 73.0215C439.686 72.8392 439.777 72.6699 439.895 72.5137C440.018 72.3509 440.266 72.1133 440.637 71.8008C440.188 71.5273 439.833 71.1074 439.572 70.541C439.312 69.9746 439.182 69.3464 439.182 68.6562C439.182 67.4648 439.494 66.5436 440.119 65.8926C440.744 65.2415 441.639 64.916 442.805 64.916C443.026 64.916 443.28 64.9421 443.566 64.9941C443.853 65.0397 444.071 65.0885 444.221 65.1406H447.316ZM440.92 77.582C440.92 78.0117 441.053 78.3405 441.32 78.5684C441.594 78.8027 441.981 78.9199 442.482 78.9199C443.27 78.9199 443.859 78.7702 444.25 78.4707C444.647 78.1712 444.846 77.7611 444.846 77.2402C444.846 76.8301 444.738 76.5404 444.523 76.3711C444.315 76.2018 443.921 76.1172 443.342 76.1172H442.082C441.73 76.1172 441.447 76.2474 441.232 76.5078C441.024 76.7747 440.92 77.1328 440.92 77.582ZM441.721 68.6758C441.721 69.9583 442.082 70.5996 442.805 70.5996C443.508 70.5996 443.859 69.9518 443.859 68.6562C443.859 67.3281 443.508 66.6641 442.805 66.6641C442.082 66.6641 441.721 67.3346 441.721 68.6758Z" fill="black"/>
<path d="M12.7168 29.4434L10.002 24.1211H12.6973L14.1426 27.4414L15.4805 24.1211H18.1562L15.4219 29.4434L18.2734 35H15.5586L14.0156 31.5234L12.5801 35H9.875L12.7168 29.4434ZM24.3086 38.1641H19.7285V20.7227H24.3086V22.6562H22.1309V36.2207H24.3086V38.1641ZM31.3008 35V28.5156C31.3008 27.7279 31.2064 27.1322 31.0176 26.7285C30.8288 26.3249 30.5228 26.123 30.0996 26.123C29.5397 26.123 29.1296 26.403 28.8691 26.9629C28.6087 27.5163 28.4785 28.4538 28.4785 29.7754V35H25.8809V24.1211H27.9414L28.2539 25.5176H28.4199C28.6543 25.0163 28.9896 24.6257 29.4258 24.3457C29.862 24.0592 30.373 23.916 30.959 23.916C31.9486 23.916 32.6875 24.2546 33.1758 24.9316C33.6706 25.6087 33.918 26.5983 33.918 27.9004V35H31.3008ZM35.373 36.2207H37.5508V22.6562H35.373V20.7227H39.9531V38.1641H35.373V36.2207Z" fill="black"/>
<path d="M548.621 24.1211H551.316L552.82 30.2637C552.97 30.8105 553.09 31.5755 553.182 32.5586H553.24C553.247 32.4023 553.276 32.1257 553.328 31.7285C553.38 31.3249 553.423 31.0091 553.455 30.7812C553.488 30.5534 553.937 28.3333 554.803 24.1211H557.537L554.422 35.7812C554.044 37.2135 553.543 38.2422 552.918 38.8672C552.293 39.4922 551.46 39.8047 550.418 39.8047C549.904 39.8047 549.445 39.7493 549.041 39.6387V37.4609C549.308 37.5391 549.607 37.5781 549.939 37.5781C550.812 37.5781 551.385 37.0052 551.658 35.8594L551.844 35.1758L548.621 24.1211ZM563.426 38.1641H558.846V20.7227H563.426V22.6562H561.248V36.2207H563.426V38.1641ZM570.418 35V28.5156C570.418 27.7279 570.324 27.1322 570.135 26.7285C569.946 26.3249 569.64 26.123 569.217 26.123C568.657 26.123 568.247 26.403 567.986 26.9629C567.726 27.5163 567.596 28.4538 567.596 29.7754V35H564.998V24.1211H567.059L567.371 25.5176H567.537C567.771 25.0163 568.107 24.6257 568.543 24.3457C568.979 24.0592 569.49 23.916 570.076 23.916C571.066 23.916 571.805 24.2546 572.293 24.9316C572.788 25.6087 573.035 26.5983 573.035 27.9004V35H570.418ZM574.49 36.2207H576.668V22.6562H574.49V20.7227H579.07V38.1641H574.49V36.2207Z" fill="black"/>
</svg>
