<svg xmlns="http://www.w3.org/2000/svg" xml:space="preserve" id="svg56" width="576.102" height="473.699" x="0" y="0" version="1.1"><style id="style2" type="text/css">.st0{display:none}.st1,.st2{display:inline}.st2{fill:#fff}</style><path id="XMLID_30_" d="M125.701 0c-21.7 0-23 11-23 11l-9.877 281.484L0 294.4C4.6 323.7 15.502 346 15.602 346l56.6-.707v23.006H25.5s32.5 65.2 74.5 95.5l28.701.738V396.3h41v69.29l97.799 2.515v-71.805h41v72.857l110.201 2.832v-75.69h41v76.743l25.6.658s54.7-40.1 86.6-105.4h-37.7v-28.776l41.9-.523-1.101-9.1-85.6-45.601-330.86 6.83L149.2 11s-1.9-11-23.5-11zm391.5 339.736V368.3h-140v-26.815zm-157 1.96v26.603h-134v-24.93zm-151 1.886v24.717h-120V345.08z" style="fill:#000;fill-opacity:1;stroke:none"/><g id="text3725" aria-label="BRICK" style="font-weight:700;font-stretch:semi-condensed;font-size:133.333px;line-height:1.25;font-family:&quot;Barlow Semi Condensed&quot;;-inkscape-font-specification:&quot;Barlow Semi Condensed, Bold Semi-Condensed&quot;"><path id="path31249" d="M234.959 123.386q0 12.667-8.267 19.334-8.133 6.533-21.066 6.533h-29.867q-.667 0-1.2-.4-.4-.533-.4-1.2V57.52q0-.667.4-1.067.533-.533 1.2-.533h27.867q14.266 0 22.133 6.4 7.866 6.266 7.866 19.2 0 13.2-10.266 19.066-.667.4-.133.8 11.733 6.667 11.733 22zm-41.333-51.333q-.667 0-.667.667v20.933q0 .667.667.667h10.133q5.333 0 8.4-2.934 3.067-2.933 3.067-8.133 0-5.333-3.067-8.267-2.933-2.933-8.4-2.933zm11.2 60.933q5.333 0 8.266-3.066 3.067-3.2 3.067-8.934 0-5.733-3.067-8.933-2.933-3.333-8.266-3.333h-11.2q-.667 0-.667.666v22.934q0 .666.667.666z"/><path id="path31251" d="M290.692 149.253q-1.467 0-1.867-1.333l-13.466-36.8q-.267-.534-.667-.534h-8.4q-.667 0-.667.667v36.4q0 .667-.533 1.2-.4.4-1.067.4h-15.6q-.666 0-1.2-.4-.4-.533-.4-1.2V57.52q0-.667.4-1.067.534-.533 1.2-.533h32.534q7.866 0 14 3.6 6.133 3.466 9.466 9.866 3.334 6.4 3.334 14.667 0 8.533-3.734 14.8-3.733 6.267-10.533 9.333-.667.267-.4.934l15.2 38.266q.133.267.133.667 0 1.2-1.466 1.2zm-24.4-77.2q-.667 0-.667.667v22.8q0 .666.667.666h11.6q4.933 0 8-3.2 3.067-3.333 3.067-8.8 0-5.6-3.067-8.8-3.067-3.333-8-3.333z"/><path id="path31253" d="M320.825 149.253q-.666 0-1.2-.4-.4-.533-.4-1.2V57.52q0-.667.4-1.067.534-.533 1.2-.533h15.6q.667 0 1.067.533.533.4.533 1.067v90.133q0 .667-.533 1.2-.4.4-1.067.4z"/><path id="path31255" d="M380.958 150.32q-9.066 0-16-3.6-6.933-3.6-10.8-10.267-3.733-6.667-3.733-15.467V83.92q0-8.667 3.733-15.2 3.867-6.667 10.8-10.267 6.934-3.6 16-3.6 9.067 0 16 3.6 6.934 3.467 10.667 9.867 3.867 6.4 3.867 14.933v.667q0 .666-.534 1.2-.4.533-1.066.533l-15.6.667q-1.6 0-1.6-1.467V83.12q0-5.467-3.2-8.8-3.2-3.334-8.534-3.334-5.333 0-8.533 3.334-3.2 3.333-3.2 8.8v39.066q0 5.467 3.2 8.8 3.2 3.2 8.533 3.2 5.334 0 8.534-3.2 3.2-3.333 3.2-8.8v-1.733q0-1.467 1.6-1.467l15.6.667q.666 0 1.066.533.534.4.534 1.067v.4q0 8.533-3.867 15.067-3.733 6.533-10.667 10.133-6.933 3.467-16 3.467z"/><path id="path31257" d="M425.092 149.253q-.667 0-1.2-.4-.4-.533-.4-1.2V57.52q0-.667.4-1.067.533-.533 1.2-.533h15.6q.666 0 1.066.533.533.4.533 1.067v35.466q0 .4.267.534.4.133.533-.267l23.867-36.267q.667-1.066 1.867-1.066h17.2q.933 0 1.2.533.4.533-.134 1.333l-24.666 38.267q-.134.4 0 .933l26.133 50.4q.267.534.267.8 0 1.067-1.467 1.067h-17.067q-1.2 0-1.866-1.2L449.49 111.52q-.133-.4-.4-.4-.266 0-.533.4l-6 8.666q-.267.534-.267.8v26.667q0 .667-.533 1.2-.4.4-1.067.4z"/></g><g id="text3725-4" aria-label="WORKS" style="font-weight:700;font-stretch:semi-condensed;font-size:133.333px;line-height:1.25;font-family:&quot;Barlow Semi Condensed&quot;;-inkscape-font-specification:&quot;Barlow Semi Condensed, Bold Semi-Condensed&quot;"><path id="path33792" d="M196.826 263.447q-1.334 0-1.734-1.333l-20.933-90.266v-.534q0-1.2 1.467-1.2h16.4q1.6 0 1.733 1.467l10.133 51.2q.134.4.4.4.267 0 .4-.4l9.734-51.2q.133-1.467 1.733-1.467h14.8q1.467 0 1.733 1.467l10.667 51.2q.133.4.4.4.266 0 .4-.4l9.6-51.2q.133-1.467 1.733-1.467h15.733q1.734 0 1.334 1.734l-19.467 90.133q-.267 1.466-1.733 1.466h-15.067q-1.467 0-1.733-1.466l-10.8-53.6q-.133-.4-.4-.4t-.4.4l-9.733 53.6q-.134 1.466-1.734 1.466z"/><path id="path33794" d="M308.692 264.647q-9.2 0-16.266-3.733-6.934-3.733-10.8-10.533-3.867-6.8-3.867-15.867v-35.466q0-8.934 3.867-15.734 3.866-6.8 10.8-10.533 7.066-3.733 16.266-3.733t16.267 3.733q7.066 3.733 10.933 10.533 3.867 6.8 3.867 15.734v35.466q0 9.067-3.867 15.867-3.867 6.8-10.933 10.533-7.067 3.733-16.267 3.733zm0-16.133q5.6 0 8.933-3.6 3.334-3.733 3.334-9.6v-36.8q0-6-3.334-9.6-3.333-3.733-8.933-3.733-5.466 0-8.8 3.733-3.333 3.6-3.333 9.6v36.8q0 5.867 3.333 9.6 3.334 3.6 8.8 3.6z"/><path id="path33796" d="M396.159 263.447q-1.467 0-1.867-1.333l-13.467-36.8q-.266-.533-.666-.533h-8.4q-.667 0-.667.666v36.4q0 .667-.533 1.2-.4.4-1.067.4h-15.6q-.667 0-1.2-.4-.4-.533-.4-1.2v-90.133q0-.666.4-1.066.533-.534 1.2-.534h32.533q7.867 0 14 3.6 6.134 3.467 9.467 9.867t3.333 14.667q0 8.533-3.733 14.8-3.733 6.266-10.533 9.333-.667.266-.4.933l15.2 38.267q.133.266.133.666 0 1.2-1.467 1.2zm-24.4-77.2q-.667 0-.667.667v22.8q0 .667.667.667h11.6q4.933 0 8-3.2 3.066-3.333 3.066-8.8 0-5.6-3.066-8.8-3.067-3.333-8-3.333z"/><path id="path33798" d="M426.292 263.447q-.667 0-1.2-.4-.4-.533-.4-1.2v-90.133q0-.666.4-1.066.533-.534 1.2-.534h15.6q.667 0 1.067.534.533.4.533 1.066v35.467q0 .4.266.533.4.134.534-.266l23.866-36.267q.667-1.067 1.867-1.067h17.2q.933 0 1.2.534.4.533-.133 1.333l-24.667 38.266q-.133.4 0 .934l26.133 50.4q.267.533.267.8 0 1.066-1.467 1.066h-17.066q-1.2 0-1.867-1.2l-18.933-36.533q-.134-.4-.4-.4-.267 0-.534.4l-6 8.667q-.266.533-.266.8v26.666q0 .667-.534 1.2-.4.4-1.066.4z"/><path id="path33800" d="M524.158 264.514q-9.2 0-16.133-3.2-6.933-3.333-10.8-9.2-3.733-6-3.733-13.733v-3.467q0-.667.4-1.067.533-.533 1.2-.533h15.333q.667 0 1.067.533.533.4.533 1.067v2.533q0 4.667 3.467 7.867 3.466 3.067 9.333 3.067 5.2 0 7.867-2.667 2.8-2.667 2.8-6.8 0-3.067-1.734-5.2-1.733-2.267-4.933-4.133-3.067-2-9.6-5.334-8-4-13.067-7.466-5.066-3.467-8.666-8.934-3.6-5.466-3.6-13.2 0-7.733 3.6-13.466 3.733-5.867 10.4-8.933 6.666-3.2 15.2-3.2 8.933 0 15.866 3.466 6.934 3.334 10.8 9.467 3.867 6.133 3.867 14.133v2.667q0 .667-.533 1.2-.4.4-1.067.4h-15.333q-.667 0-1.2-.4-.4-.533-.4-1.2v-2.4q0-4.8-3.334-8-3.333-3.2-9.066-3.2-4.8 0-7.6 2.533-2.667 2.4-2.667 6.8 0 3.067 1.6 5.334 1.6 2.266 4.933 4.4 3.334 2 10.134 5.333l2.8 1.6q7.733 4.266 12 7.466 4.4 3.067 7.333 7.867t2.933 11.6q0 12.133-8.266 19.333-8.134 7.067-21.734 7.067z"/></g></svg>