<?xml version="1.0" encoding="UTF-8" standalone="no"?>
<svg
   width="115"
   height="68"
   viewBox="0 0 115 68"
   fill="none"
   version="1.1"
   id="svg12"
   sodipodi:docname="ElkLogo.svg"
   inkscape:version="1.1.2 (b8e25be833, 2022-02-05)"
   xmlns:inkscape="http://www.inkscape.org/namespaces/inkscape"
   xmlns:sodipodi="http://sodipodi.sourceforge.net/DTD/sodipodi-0.dtd"
   xmlns="http://www.w3.org/2000/svg"
   xmlns:svg="http://www.w3.org/2000/svg">
  <defs
     id="defs16" />
  <sodipodi:namedview
     id="namedview14"
     pagecolor="#ffffff"
     bordercolor="#666666"
     borderopacity="1.0"
     inkscape:pageshadow="2"
     inkscape:pageopacity="0.0"
     inkscape:pagecheckerboard="0"
     showgrid="false"
     inkscape:zoom="8.5775127"
     inkscape:cx="42.61142"
     inkscape:cy="24.71579"
     inkscape:window-width="1920"
     inkscape:window-height="1014"
     inkscape:window-x="2552"
     inkscape:window-y="180"
     inkscape:window-maximized="1"
     inkscape:current-layer="svg12" />
  <path
     d="M49.2173 0.0299758L63.1357 0.0169206L63.2001 67.3927L49.2817 67.4058L49.2173 0.0299758Z"
     fill="white"
     id="path2"
     style="fill:#000000;fill-opacity:1" />
  <path
     d="M0 0.0761378L45.2318 0.0337134L45.244 12.8565L14.1666 12.8856L14.1717 18.2597L0.0173873 18.273L0 0.0761378Z"
     fill="white"
     id="path4"
     style="fill:#000000;fill-opacity:1" />
  <path
     d="M0.0194642 20.4476L14.1738 20.4343L14.1799 26.7957L45.2697 26.7665L45.283 40.6766L14.1932 40.7058L14.1986 46.3798L0.0442557 46.3931L0.0194642 20.4476Z"
     fill="white"
     id="path6"
     style="fill:#000000;fill-opacity:1" />
  <path
     d="M0.0463094 48.5427L14.2006 48.5294L14.2065 54.6159L45.2963 54.5867L45.3086 67.4095L0.0643769 67.4519L0.0463094 48.5427Z"
     fill="white"
     id="path8"
     style="fill:#000000;fill-opacity:1" />
  <path
     d="M81.2253 51.3286L81.2407 67.3883L67.3223 67.4013L67.2579 0.0130551L81.1763 0L81.2107 36.0312L81.9681 36.0305L98.0286 16.8313L114.008 16.8163L95.3925 38.7175L115 67.3566L98.6977 67.3719L84.9833 47.0133L81.2253 51.3286Z"
     fill="white"
     id="path10"
     style="fill:#000000;fill-opacity:1" />
</svg>
